<svg id="Ebene_1" data-name="Ebene 1" xmlns="http://www.w3.org/2000/svg" viewBox="0 0 78.66 34"><defs><style>.cls-1{fill:white;}</style></defs><title>hfbklogob</title><path class="cls-1" d="M1,1.43H3.23v5H9.11v-5h2.23V14H9.11V8.45H3.23V14H1Z" transform="translate(-1 -1.43)"/><path class="cls-1" d="M19.46,1.43h8.1v2H21.69v3.3h5.54v2H21.69V14H19.46Z" transform="translate(-1 -1.43)"/><path class="cls-1" d="M34.61,1.43h4.9c1.9,0,3.85.86,3.85,3.15a2.8,2.8,0,0,1-2.18,2.75v0a3,3,0,0,1,2.71,3c0,2.74-2.37,3.59-4.75,3.59H34.61Zm2.24,5.11h2c1.49,0,2.24-.64,2.24-1.58s-.75-1.62-2.44-1.62H36.85Zm0,5.53h2.06c1.15,0,2.75-.19,2.75-1.84,0-1.32-.85-1.78-2.66-1.78H36.85Z" transform="translate(-1 -1.43)"/><path class="cls-1" d="M51.07,1.43H53.3V6.75h.11l5.2-5.32h3l-5.88,5.8L62,14H58.88L53.43,7.81H53.3V14H51.07Z" transform="translate(-1 -1.43)"/><path class="cls-1" d="M1,19.53h.88v2H4.24v-2h.88v5H4.24V22.3H1.92v2.19H1Z" transform="translate(-1 -1.43)"/><path class="cls-1" d="M7.81,21a1.77,1.77,0,1,1,0,3.53,1.77,1.77,0,1,1,0-3.53Zm0,2.78a1,1,0,1,0-1-1A1,1,0,0,0,7.81,23.82Z" transform="translate(-1 -1.43)"/><path class="cls-1" d="M12.71,22.14a.89.89,0,0,0-.63-.34,1,1,0,0,0,0,2,.81.81,0,0,0,.65-.32l.56.61a1.92,1.92,0,0,1-1.21.46,1.77,1.77,0,1,1,0-3.53,1.63,1.63,0,0,1,1.21.52Z" transform="translate(-1 -1.43)"/><path class="cls-1" d="M14.63,21.6h0a1.07,1.07,0,0,1,1-.56,1.18,1.18,0,0,1,1.23,1.33v2.12H16v-1.7c0-.37,0-1-.62-1a.76.76,0,0,0-.77.85v1.84h-.84v-5.3h.84Z" transform="translate(-1 -1.43)"/><path class="cls-1" d="M19.6,22.06a.77.77,0,0,0-.66-.34c-.22,0-.49.1-.49.35,0,.61,1.82.12,1.82,1.43,0,.79-.77,1.07-1.45,1.07a1.65,1.65,0,0,1-1.31-.51l.56-.53a1,1,0,0,0,.79.41c.25,0,.57-.12.57-.38,0-.7-1.82-.15-1.82-1.43,0-.75.67-1.09,1.35-1.09a1.44,1.44,0,0,1,1.2.52Z" transform="translate(-1 -1.43)"/><path class="cls-1" d="M23.21,22.14a.89.89,0,0,0-.63-.34,1,1,0,0,0,0,2,.81.81,0,0,0,.65-.32l.56.61a1.92,1.92,0,0,1-1.21.46,1.77,1.77,0,1,1,0-3.53,1.63,1.63,0,0,1,1.21.52Z" transform="translate(-1 -1.43)"/><path class="cls-1" d="M25.13,21.6h0a1.07,1.07,0,0,1,1-.56,1.18,1.18,0,0,1,1.23,1.33v2.12h-.84v-1.7c0-.37,0-1-.62-1a.76.76,0,0,0-.77.85v1.84h-.84v-5.3h.84Z" transform="translate(-1 -1.43)"/><path class="cls-1" d="M31.37,24.49h-.79V24h0a1,1,0,0,1-1,.62,1.16,1.16,0,0,1-1.22-1.32V21.13h.84v1.7c0,.37,0,1,.61,1s.77-.41.77-.86V21.13h.84Z" transform="translate(-1 -1.43)"/><path class="cls-1" d="M32.34,19.19h.84v5.3h-.84Z" transform="translate(-1 -1.43)"/><path class="cls-1" d="M34.82,23.1a.86.86,0,0,0,.9.8,1.09,1.09,0,0,0,.9-.45l.61.45a1.77,1.77,0,0,1-1.43.67,1.77,1.77,0,1,1,0-3.53c.94,0,1.58.66,1.58,1.83v.23Zm1.72-.63a.78.78,0,0,0-.85-.8.84.84,0,0,0-.87.8Z" transform="translate(-1 -1.43)"/><path class="cls-1" d="M40.54,21.84h-.7v-.71h.7v-.48c0-.93.21-1.54,1.25-1.54a2.32,2.32,0,0,1,.53.05l0,.71a2.21,2.21,0,0,0-.35,0c-.47,0-.54.32-.54.69v.61h.77v.71h-.77v2.65h-.84Z" transform="translate(-1 -1.43)"/><path class="cls-1" d="M45.77,24.49H45V24h0a1,1,0,0,1-1,.62,1.16,1.16,0,0,1-1.22-1.32V21.13h.84v1.7c0,.37,0,1,.62,1a.76.76,0,0,0,.77-.86V21.13h.84Zm-2.27-5A.51.51,0,1,1,43,20,.52.52,0,0,1,43.5,19.53Zm1.45,0a.51.51,0,1,1-.54.51A.53.53,0,0,1,45,19.53Z" transform="translate(-1 -1.43)"/><path class="cls-1" d="M46.72,21.13h.84v.53h0a1.06,1.06,0,0,1,1-.62,1,1,0,0,1,.3.05v.82a1.53,1.53,0,0,0-.41-.07.85.85,0,0,0-.9.85v1.8h-.84Z" transform="translate(-1 -1.43)"/><path class="cls-1" d="M51.51,19.19h.84v2.37h0A1.38,1.38,0,0,1,53.51,21a1.65,1.65,0,0,1,1.63,1.77,1.63,1.63,0,0,1-1.66,1.76A1.31,1.31,0,0,1,52.32,24h0v.5h-.8Zm1.8,2.61a1,1,0,1,0,1,1A1,1,0,0,0,53.31,21.8Z" transform="translate(-1 -1.43)"/><path class="cls-1" d="M56.35,19.48a.51.51,0,1,1,0,1,.51.51,0,1,1,0-1Zm-.41,1.65h.84v3.36h-.84Z" transform="translate(-1 -1.43)"/><path class="cls-1" d="M57.75,19.19h.85v5.3h-.85Z" transform="translate(-1 -1.43)"/><path class="cls-1" d="M62.22,24h0a1.31,1.31,0,0,1-1.16.58,1.63,1.63,0,0,1-1.66-1.76A1.65,1.65,0,0,1,61,21a1.38,1.38,0,0,1,1.14.52h0V19.19H63v5.3h-.8Zm-1-.17a1,1,0,1,0-1-1A1,1,0,0,0,61.22,23.82Z" transform="translate(-1 -1.43)"/><path class="cls-1" d="M64.64,23.1a.88.88,0,0,0,.91.8,1.09,1.09,0,0,0,.9-.45l.6.45A1.8,1.8,0,1,1,65.63,21c.94,0,1.58.66,1.58,1.83v.23Zm1.73-.63a.78.78,0,0,0-.86-.8.84.84,0,0,0-.87.8Z" transform="translate(-1 -1.43)"/><path class="cls-1" d="M68,21.13h.8v.54h0a1.06,1.06,0,0,1,1-.63,1.18,1.18,0,0,1,1.23,1.33v2.12h-.84v-1.7c0-.37,0-1-.62-1a.76.76,0,0,0-.77.85v1.84H68Z" transform="translate(-1 -1.43)"/><path class="cls-1" d="M74.67,24h0a1.31,1.31,0,0,1-1.16.58,1.63,1.63,0,0,1-1.66-1.76A1.65,1.65,0,0,1,73.46,21a1.4,1.4,0,0,1,1.15.52h0V19.19h.84v5.3h-.8Zm-1-.17a1,1,0,0,0,0-2,1,1,0,0,0,0,2Z" transform="translate(-1 -1.43)"/><path class="cls-1" d="M77.09,23.1a.87.87,0,0,0,.9.8,1.11,1.11,0,0,0,.91-.45l.6.45a1.75,1.75,0,0,1-1.42.67,1.77,1.77,0,1,1,0-3.53c.93,0,1.57.66,1.57,1.83v.23Zm1.72-.63a.78.78,0,0,0-.85-.8.84.84,0,0,0-.87.8Z" transform="translate(-1 -1.43)"/><path class="cls-1" d="M1,28.78h.88v2.1H2L4,28.78H5.2L2.88,31.07l2.48,2.67H4.12L2,31.3H1.92v2.44H1Z" transform="translate(-1 -1.43)"/><path class="cls-1" d="M8.82,33.74H8V33.2H8a1.05,1.05,0,0,1-1,.62A1.17,1.17,0,0,1,5.75,32.5V30.38h.84v1.7c0,.37,0,1,.62,1A.76.76,0,0,0,8,32.21V30.38h.84Zm-2.26-5a.51.51,0,1,1,0,1,.51.51,0,1,1,0-1Zm1.44,0a.51.51,0,1,1,0,1,.51.51,0,1,1,0-1Z" transform="translate(-1 -1.43)"/><path class="cls-1" d="M9.77,30.38h.8v.54h0a1.06,1.06,0,0,1,1-.63,1.17,1.17,0,0,1,1.23,1.33v2.12H12V32c0-.37,0-1-.62-1a.76.76,0,0,0-.77.85v1.84H9.77Z" transform="translate(-1 -1.43)"/><path class="cls-1" d="M15.58,31.31a.77.77,0,0,0-.66-.34c-.22,0-.49.1-.49.35,0,.61,1.82.12,1.82,1.43,0,.79-.77,1.07-1.45,1.07a1.65,1.65,0,0,1-1.31-.51l.56-.53a1,1,0,0,0,.8.41c.24,0,.56-.12.56-.38,0-.7-1.82-.15-1.82-1.43,0-.75.68-1.09,1.35-1.09a1.44,1.44,0,0,1,1.2.52Z" transform="translate(-1 -1.43)"/><path class="cls-1" d="M16.5,31.09v-.71h.7v-1H18v1H19v.71H18v1.47c0,.34.1.55.47.55A.81.81,0,0,0,19,33v.71a1.64,1.64,0,0,1-.66.11c-.89,0-1.1-.4-1.1-1.19V31.09Z" transform="translate(-1 -1.43)"/><path class="cls-1" d="M20.29,32.35a.88.88,0,0,0,.91.8,1.09,1.09,0,0,0,.9-.45l.6.45a1.75,1.75,0,0,1-1.42.67,1.77,1.77,0,1,1,0-3.53c.94,0,1.58.66,1.58,1.83v.23ZM22,31.72a.78.78,0,0,0-.86-.8.84.84,0,0,0-.87.8Z" transform="translate(-1 -1.43)"/><path class="cls-1" d="M25.79,28.78h.88v2H29v-2h.88v5H29V31.55H26.67v2.19h-.88Z" transform="translate(-1 -1.43)"/><path class="cls-1" d="M33,33.28h0a1.2,1.2,0,0,1-1.08.54,1.1,1.1,0,0,1-1.23-1c0-1.09,1.28-1.16,2.12-1.16H33v-.1c0-.41-.32-.63-.77-.63a1.34,1.34,0,0,0-.9.35l-.44-.44a2,2,0,0,1,1.43-.54c1.43,0,1.43,1,1.43,1.52v1.93H33Zm0-1.05h-.18c-.46,0-1.26,0-1.26.52,0,.31.32.44.59.44.58,0,.85-.3.85-.77Z" transform="translate(-1 -1.43)"/><path class="cls-1" d="M34.62,30.38h.8v.52h0a1.08,1.08,0,0,1,1-.61,1,1,0,0,1,1,.63,1.18,1.18,0,0,1,1.11-.63c.9,0,1.21.64,1.21,1.45v2H39V31.83c0-.42-.12-.78-.62-.78s-.72.43-.72.87v1.82h-.84v-2c0-.42-.17-.69-.58-.69a.76.76,0,0,0-.77.85v1.84h-.84Z" transform="translate(-1 -1.43)"/><path class="cls-1" d="M40.75,28.44h.84v2.37h0a1.37,1.37,0,0,1,1.14-.52,1.65,1.65,0,0,1,1.62,1.77,1.63,1.63,0,0,1-1.66,1.76,1.29,1.29,0,0,1-1.15-.58h0v.5h-.79Zm1.8,2.61a1,1,0,1,0,1,1A1,1,0,0,0,42.55,31.05Z" transform="translate(-1 -1.43)"/><path class="cls-1" d="M48.22,33.74h-.8V33.2h0a1,1,0,0,1-1,.62,1.16,1.16,0,0,1-1.22-1.32V30.38H46v1.7c0,.37,0,1,.61,1s.77-.41.77-.86V30.38h.84Z" transform="translate(-1 -1.43)"/><path class="cls-1" d="M49.17,30.38H50v.53h0a1.06,1.06,0,0,1,1-.62.94.94,0,0,1,.3.05v.82a1.46,1.46,0,0,0-.4-.07.86.86,0,0,0-.91.85v1.8h-.84Z" transform="translate(-1 -1.43)"/><path class="cls-1" d="M55.24,30.38v3.06a1.74,1.74,0,0,1-1.9,2,2.41,2.41,0,0,1-1.67-.55l.51-.69a1.59,1.59,0,0,0,1.15.48c.82,0,1.07-.46,1.07-1.12v-.25h0a1.36,1.36,0,0,1-1.1.49,1.65,1.65,0,0,1-1.67-1.72,1.63,1.63,0,0,1,1.66-1.77,1.32,1.32,0,0,1,1.16.59h0v-.5Zm-2.79,1.67a1,1,0,0,0,1,1,1,1,0,1,0,0-2A1,1,0,0,0,52.45,32.05Z" transform="translate(-1 -1.43)"/></svg>